<svg xmlns="http://www.w3.org/2000/svg" xmlns:xlink="http://www.w3.org/1999/xlink" width="500" zoomAndPan="magnify" viewBox="0 0 375 374.999991" height="500" preserveAspectRatio="xMidYMid meet" version="1.0"><defs><g/><clipPath id="id1"><path d="M 82.246094 156.90625 L 193.246094 156.90625 L 193.246094 212.40625 L 82.246094 212.40625 Z M 82.246094 156.90625 " clip-rule="nonzero"/></clipPath></defs><rect x="-37.5" width="450" fill="rgb(100%, 100%, 100%)" y="-37.499999" height="449.999989" fill-opacity="1"/><rect x="-37.5" width="450" fill="rgb(0%, 0%, 0%)" y="-37.499999" height="449.999989" fill-opacity="1"/><rect x="-37.5" width="450" fill="rgb(100%, 100%, 100%)" y="-37.499999" height="449.999989" fill-opacity="1"/><rect x="-37.5" width="450" fill="rgb(0%, 0%, 0%)" y="-37.499999" height="449.999989" fill-opacity="1"/><g clip-path="url(#id1)"><path fill="rgb(93.328857%, 3.138733%, 13.729858%)" d="M 82.246094 129.125 L 193.246094 129.125 L 193.246094 240.125 L 82.246094 240.125 Z M 82.246094 129.125 " fill-opacity="1" fill-rule="nonzero"/></g><g fill="rgb(100%, 100%, 100%)" fill-opacity="1"><g transform="translate(99.17389, 204.113574)"><g><path d="M 17.78125 -32.097656 C 9.117188 -32.097656 2.371094 -26.125 2.371094 -15.546875 C 2.371094 -5.242188 8.753906 0.636719 17.371094 0.636719 C 25.351562 0.636719 30.777344 -3.511719 31.507812 -10.625 L 31.550781 -11.078125 L 24.394531 -11.078125 L 24.300781 -10.625 C 23.574219 -6.886719 21.339844 -4.652344 17.644531 -4.652344 C 13.359375 -4.652344 9.894531 -8.070312 9.894531 -15.957031 C 9.894531 -22.933594 13.132812 -26.808594 17.691406 -26.808594 C 21.476562 -26.808594 23.710938 -24.847656 24.4375 -21.203125 L 24.53125 -20.746094 L 31.6875 -20.746094 L 31.644531 -21.203125 C 31.003906 -27.402344 26.492188 -32.097656 17.78125 -32.097656 Z M 17.78125 -32.097656 "/></g></g></g><g fill="rgb(100%, 100%, 100%)" fill-opacity="1"><g transform="translate(129.950623, 204.113574)"><g><path d="M 26.125 -18.238281 C 25.578125 -22.476562 22.617188 -24.941406 17.507812 -24.941406 C 15.230469 -24.941406 13.496094 -24.484375 11.855469 -23.390625 L 9.847656 -20.472656 L 9.847656 -33.742188 L 2.691406 -33.742188 L 2.691406 0 L 9.847656 0 L 9.847656 -11.261719 C 9.847656 -17.464844 11.945312 -19.972656 14.773438 -20.015625 C 17.554688 -20.015625 18.921875 -18.464844 19.105469 -16.003906 C 19.195312 -14.773438 19.195312 -13.542969 19.195312 -12.628906 L 19.195312 0 L 26.355469 0 L 26.355469 -13.722656 C 26.355469 -15.683594 26.308594 -17.007812 26.125 -18.238281 Z M 26.125 -18.238281 "/></g></g></g><g fill="rgb(100%, 100%, 100%)" fill-opacity="1"><g transform="translate(156.441412, 204.113574)"><g><path d="M 25.535156 -12.585938 C 25.535156 -19.058594 21.519531 -24.941406 13.769531 -24.941406 C 6.0625 -24.941406 1.183594 -19.378906 1.183594 -12.082031 C 1.183594 -3.511719 6.519531 0.636719 13.3125 0.636719 C 19.242188 0.636719 23.800781 -2.324219 25.121094 -7.933594 L 18.054688 -7.933594 C 17.644531 -5.652344 15.957031 -4.285156 13.449219 -4.285156 C 10.761719 -4.285156 8.753906 -5.652344 8.34375 -10.304688 L 25.398438 -10.304688 C 25.488281 -11.171875 25.535156 -11.945312 25.535156 -12.585938 Z M 13.449219 -20.015625 C 16.09375 -20.015625 17.691406 -18.238281 18.101562 -14.820312 L 8.527344 -14.820312 C 9.117188 -18.421875 10.898438 -20.015625 13.449219 -20.015625 Z M 13.449219 -20.015625 "/></g></g></g><g fill="rgb(100%, 100%, 100%)" fill-opacity="1"><g transform="translate(180.971618, 204.113574)"><g><path d="M 16.871094 0 L 23.847656 0 C 23.480469 -2.691406 23.390625 -4.332031 23.390625 -6.15625 L 23.390625 -13.542969 C 23.390625 -14.957031 23.34375 -16.324219 23.253906 -17.464844 C 22.890625 -21.792969 20.289062 -24.941406 13.085938 -24.941406 C 7.160156 -24.941406 2.460938 -21.792969 2.324219 -16.230469 L 9.164062 -16.230469 C 9.347656 -18.648438 10.578125 -20.015625 12.8125 -20.015625 C 14.957031 -20.015625 16.050781 -18.832031 16.1875 -17.371094 C 16.277344 -16.550781 16.277344 -15.914062 16.277344 -15.273438 L 16.277344 -14.863281 L 14.726562 -14.863281 C 6.15625 -14.863281 1.460938 -11.761719 1.460938 -6.472656 C 1.460938 -1.871094 5.152344 0.636719 9.253906 0.636719 C 11.488281 0.636719 13.542969 0.136719 15.273438 -0.957031 L 16.367188 -3.554688 Z M 12.082031 -4.285156 C 10.121094 -4.285156 8.800781 -5.242188 8.800781 -7.066406 C 8.800781 -9.894531 11.855469 -10.988281 16.277344 -10.625 L 16.277344 -8.84375 C 16.277344 -5.835938 14.226562 -4.285156 12.082031 -4.285156 Z M 12.082031 -4.285156 "/></g></g></g><g fill="rgb(100%, 100%, 100%)" fill-opacity="1"><g transform="translate(204.817892, 204.113574)"><g><path d="M 17.917969 -24.941406 C 15.457031 -24.941406 13.039062 -24.394531 11.671875 -23.34375 L 9.847656 -20.65625 L 9.847656 -24.300781 L 2.691406 -24.300781 L 2.691406 8.9375 L 9.847656 8.9375 L 9.847656 -3.191406 L 11.445312 -0.636719 C 12.675781 0.136719 15.09375 0.636719 17.097656 0.636719 C 23.34375 0.636719 28.679688 -3.921875 28.679688 -12.675781 C 28.679688 -19.832031 24.621094 -24.941406 17.917969 -24.941406 Z M 15.410156 -4.285156 C 12.675781 -4.285156 9.847656 -6.109375 9.847656 -11.351562 L 9.847656 -12.449219 C 9.847656 -18.011719 12.355469 -20.015625 15.640625 -20.015625 C 19.011719 -20.015625 21.339844 -17.007812 21.339844 -12.21875 C 21.339844 -6.929688 18.875 -4.285156 15.410156 -4.285156 Z M 15.410156 -4.285156 "/></g></g></g><g fill="rgb(100%, 100%, 100%)" fill-opacity="1"><g transform="translate(232.402966, 204.113574)"><g/></g></g><g fill="rgb(100%, 100%, 100%)" fill-opacity="1"><g transform="translate(238.603908, 204.113574)"><g><path d="M 14.589844 -32.097656 C 8.480469 -32.097656 3.054688 -28.679688 3.054688 -22.796875 C 3.054688 -16.777344 7.160156 -14.542969 13.90625 -12.859375 C 18.191406 -11.855469 19.652344 -10.351562 19.652344 -8.160156 C 19.652344 -6.019531 17.601562 -4.652344 15 -4.652344 C 12.128906 -4.652344 9.621094 -6.199219 8.980469 -9.4375 L 1.777344 -9.4375 C 2.324219 -2.644531 7.433594 0.636719 15.136719 0.636719 C 21.429688 0.636719 27.128906 -2.644531 27.128906 -8.753906 C 27.128906 -13.722656 24.121094 -17.007812 17.1875 -18.648438 C 12.128906 -19.832031 10.53125 -21.109375 10.53125 -23.480469 C 10.53125 -25.761719 12.128906 -26.808594 14.363281 -26.808594 C 17.371094 -26.808594 19.011719 -24.941406 19.378906 -22.023438 L 26.582031 -22.023438 C 25.898438 -27.722656 22.433594 -32.097656 14.589844 -32.097656 Z M 14.589844 -32.097656 "/></g></g></g><g fill="rgb(100%, 100%, 100%)" fill-opacity="1"><g transform="translate(264.410779, 204.113574)"><g><path d="M 11.261719 -19.558594 L 16.414062 -19.558594 L 16.414062 -24.121094 L 11.261719 -24.121094 L 11.261719 -30.230469 L 4.105469 -30.230469 L 4.105469 -24.121094 L 0.410156 -24.121094 L 0.410156 -19.558594 L 4.105469 -19.558594 L 4.105469 -8.390625 C 4.105469 -7.023438 4.105469 -5.925781 4.195312 -4.695312 C 4.46875 -1.140625 6.199219 0.59375 11.535156 0.59375 C 13.085938 0.59375 14.5 0.457031 15.957031 0.226562 L 15.957031 -4.332031 C 12.3125 -4.105469 11.488281 -4.652344 11.308594 -7.066406 C 11.261719 -7.707031 11.261719 -8.527344 11.261719 -9.347656 Z M 11.261719 -19.558594 "/></g></g></g><g fill="rgb(100%, 100%, 100%)" fill-opacity="1"><g transform="translate(279.365994, 204.113574)"><g><path d="M 13.996094 -24.941406 C 5.925781 -24.941406 1.183594 -19.742188 1.183594 -12.175781 C 1.183594 -4.605469 5.925781 0.636719 13.996094 0.636719 C 22.023438 0.636719 26.808594 -4.605469 26.808594 -12.175781 C 26.808594 -19.742188 22.023438 -24.941406 13.996094 -24.941406 Z M 13.996094 -4.285156 C 10.578125 -4.285156 8.527344 -7.113281 8.527344 -12.175781 C 8.527344 -17.234375 10.578125 -20.015625 13.996094 -20.015625 C 17.371094 -20.015625 19.421875 -17.234375 19.421875 -12.175781 C 19.421875 -7.113281 17.371094 -4.285156 13.996094 -4.285156 Z M 13.996094 -4.285156 "/></g></g></g><g fill="rgb(100%, 100%, 100%)" fill-opacity="1"><g transform="translate(305.036079, 204.113574)"><g><path d="M 16.09375 -24.941406 C 14.683594 -24.941406 12.902344 -24.300781 11.671875 -23.027344 L 9.847656 -19.652344 L 9.847656 -24.300781 L 2.691406 -24.300781 L 2.691406 0 L 9.847656 0 L 9.847656 -10.167969 C 9.847656 -17.050781 12.265625 -19.332031 17.917969 -18.96875 L 17.917969 -24.757812 C 17.371094 -24.847656 16.871094 -24.941406 16.09375 -24.941406 Z M 16.09375 -24.941406 "/></g></g></g><g fill="rgb(100%, 100%, 100%)" fill-opacity="1"><g transform="translate(320.903191, 204.113574)"><g><path d="M 25.535156 -12.585938 C 25.535156 -19.058594 21.519531 -24.941406 13.769531 -24.941406 C 6.0625 -24.941406 1.183594 -19.378906 1.183594 -12.082031 C 1.183594 -3.511719 6.519531 0.636719 13.3125 0.636719 C 19.242188 0.636719 23.800781 -2.324219 25.121094 -7.933594 L 18.054688 -7.933594 C 17.644531 -5.652344 15.957031 -4.285156 13.449219 -4.285156 C 10.761719 -4.285156 8.753906 -5.652344 8.34375 -10.304688 L 25.398438 -10.304688 C 25.488281 -11.171875 25.535156 -11.945312 25.535156 -12.585938 Z M 13.449219 -20.015625 C 16.09375 -20.015625 17.691406 -18.238281 18.101562 -14.820312 L 8.527344 -14.820312 C 9.117188 -18.421875 10.898438 -20.015625 13.449219 -20.015625 Z M 13.449219 -20.015625 "/></g></g></g><g fill="rgb(100%, 100%, 100%)" fill-opacity="1"><g transform="translate(99.17389, 224.3406)"><g><path d="M 4.003906 -6.898438 C 3.652344 -6.941406 3.488281 -6.941406 3.117188 -6.941406 L 1.003906 -6.941406 L 1.003906 0 L 3.066406 0 C 3.441406 0 3.601562 0 3.953125 -0.0390625 C 5.5625 -0.242188 6.75 -1.507812 6.75 -3.550781 C 6.75 -5.621094 5.613281 -6.699219 4.003906 -6.898438 Z M 3.863281 -0.753906 C 3.640625 -0.714844 3.378906 -0.703125 3.015625 -0.703125 L 1.871094 -0.703125 L 1.871094 -6.234375 L 3.066406 -6.234375 C 3.429688 -6.234375 3.691406 -6.226562 3.914062 -6.183594 C 5.089844 -5.996094 5.804688 -5.089844 5.804688 -3.550781 C 5.804688 -1.910156 5.039062 -0.945312 3.863281 -0.753906 Z M 3.863281 -0.753906 "/></g></g></g><g fill="rgb(100%, 100%, 100%)" fill-opacity="1"><g transform="translate(112.310004, 224.3406)"><g><path d="M 1.871094 0 L 1.871094 -6.941406 L 1.003906 -6.941406 L 1.003906 0 Z M 1.871094 0 "/></g></g></g><g fill="rgb(100%, 100%, 100%)" fill-opacity="1"><g transform="translate(120.971776, 224.3406)"><g><path d="M 3.15625 -7.082031 C 1.878906 -7.082031 0.84375 -6.324219 0.84375 -5.128906 C 0.84375 -3.984375 1.699219 -3.488281 2.925781 -3.207031 C 4.144531 -2.925781 4.625 -2.542969 4.625 -1.699219 C 4.625 -0.976562 3.984375 -0.542969 3.1875 -0.542969 C 2.28125 -0.542969 1.648438 -1.054688 1.449219 -1.972656 L 0.523438 -1.972656 C 0.675781 -0.632812 1.640625 0.140625 3.167969 0.140625 C 4.503906 0.140625 5.550781 -0.644531 5.550781 -1.859375 C 5.550781 -3.039062 4.789062 -3.660156 3.257812 -4.011719 C 2.203125 -4.253906 1.769531 -4.574219 1.769531 -5.332031 C 1.769531 -6.054688 2.351562 -6.398438 3.085938 -6.398438 C 3.960938 -6.398438 4.476562 -5.894531 4.554688 -5.019531 L 5.480469 -5.019531 C 5.351562 -6.207031 4.597656 -7.082031 3.15625 -7.082031 Z M 3.15625 -7.082031 "/></g></g></g><g fill="rgb(100%, 100%, 100%)" fill-opacity="1"><g transform="translate(132.861103, 224.3406)"><g><path d="M 6.15625 -6.234375 L 6.15625 -6.941406 L 0.34375 -6.941406 L 0.34375 -6.234375 L 2.816406 -6.234375 L 2.816406 0 L 3.679688 0 L 3.679688 -6.234375 Z M 6.15625 -6.234375 "/></g></g></g><g fill="rgb(100%, 100%, 100%)" fill-opacity="1"><g transform="translate(145.021906, 224.3406)"><g><path d="M 5.570312 -1.820312 C 5.511719 -2.515625 5.238281 -3.148438 4.675781 -3.410156 C 5.320312 -3.609375 5.914062 -4.132812 5.914062 -5.050781 C 5.914062 -6.214844 5.191406 -6.769531 4.183594 -6.898438 C 3.871094 -6.941406 3.628906 -6.941406 3.277344 -6.941406 L 1.003906 -6.941406 L 1.003906 0 L 1.871094 0 L 1.871094 -2.988281 L 3.179688 -2.988281 C 3.339844 -2.988281 3.511719 -2.988281 3.671875 -2.976562 C 4.355469 -2.925781 4.625 -2.453125 4.707031 -1.738281 C 4.796875 -0.886719 4.886719 -0.441406 5.078125 0 L 6.035156 0 C 5.753906 -0.371094 5.652344 -0.914062 5.570312 -1.820312 Z M 1.871094 -3.691406 L 1.871094 -6.234375 L 3.277344 -6.234375 C 3.589844 -6.234375 3.78125 -6.226562 3.972656 -6.195312 C 4.617188 -6.09375 4.988281 -5.742188 4.988281 -4.96875 C 4.988281 -4.183594 4.515625 -3.773438 3.871094 -3.710938 C 3.679688 -3.691406 3.511719 -3.691406 3.199219 -3.691406 Z M 1.871094 -3.691406 "/></g></g></g><g fill="rgb(100%, 100%, 100%)" fill-opacity="1"><g transform="translate(157.253098, 224.3406)"><g><path d="M 1.871094 0 L 1.871094 -6.941406 L 1.003906 -6.941406 L 1.003906 0 Z M 1.871094 0 "/></g></g></g><g fill="rgb(100%, 100%, 100%)" fill-opacity="1"><g transform="translate(165.914873, 224.3406)"><g><path d="M 4.484375 -3.691406 C 5.199219 -3.933594 5.664062 -4.375 5.664062 -5.210938 C 5.664062 -6.195312 5.050781 -6.75 3.953125 -6.898438 C 3.621094 -6.941406 3.378906 -6.941406 3.046875 -6.941406 L 1.003906 -6.941406 L 1.003906 0 L 3.238281 0 C 3.558594 0 3.78125 0 4.125 -0.0507812 C 5.039062 -0.191406 5.914062 -0.773438 5.914062 -2.042969 C 5.914062 -2.996094 5.402344 -3.480469 4.484375 -3.691406 Z M 1.871094 -6.234375 L 3.117188 -6.234375 C 3.277344 -6.234375 3.488281 -6.234375 3.671875 -6.214844 C 4.292969 -6.144531 4.738281 -5.824219 4.738281 -5.140625 C 4.738281 -4.527344 4.476562 -4.101562 3.761719 -3.992188 C 3.558594 -3.960938 3.390625 -3.953125 3.207031 -3.953125 L 1.871094 -3.953125 Z M 3.851562 -0.722656 C 3.722656 -0.714844 3.53125 -0.703125 3.371094 -0.703125 L 1.871094 -0.703125 L 1.871094 -3.25 L 3.308594 -3.25 C 3.46875 -3.25 3.628906 -3.238281 3.863281 -3.207031 C 4.527344 -3.117188 4.988281 -2.804688 4.988281 -1.949219 C 4.988281 -1.195312 4.515625 -0.785156 3.851562 -0.722656 Z M 3.851562 -0.722656 "/></g></g></g><g fill="rgb(100%, 100%, 100%)" fill-opacity="1"><g transform="translate(178.226501, 224.3406)"><g><path d="M 6.15625 -6.941406 L 5.289062 -6.941406 L 5.289062 -2.644531 C 5.289062 -2.425781 5.289062 -2.210938 5.269531 -2.03125 C 5.191406 -1.15625 4.617188 -0.542969 3.550781 -0.542969 C 2.484375 -0.542969 1.910156 -1.15625 1.832031 -2.03125 C 1.808594 -2.210938 1.808594 -2.425781 1.808594 -2.644531 L 1.808594 -6.941406 L 0.945312 -6.941406 L 0.945312 -2.566406 C 0.945312 -2.34375 0.945312 -2.140625 0.964844 -1.941406 C 1.066406 -0.785156 1.851562 0.140625 3.550781 0.140625 C 5.25 0.140625 6.035156 -0.785156 6.136719 -1.941406 C 6.15625 -2.140625 6.15625 -2.34375 6.15625 -2.566406 Z M 6.15625 -6.941406 "/></g></g></g><g fill="rgb(100%, 100%, 100%)" fill-opacity="1"><g transform="translate(191.091135, 224.3406)"><g><path d="M 1.871094 0 L 1.871094 -6.941406 L 1.003906 -6.941406 L 1.003906 0 Z M 1.871094 0 "/></g></g></g><g fill="rgb(100%, 100%, 100%)" fill-opacity="1"><g transform="translate(199.752905, 224.3406)"><g><path d="M 4.003906 -6.898438 C 3.652344 -6.941406 3.488281 -6.941406 3.117188 -6.941406 L 1.003906 -6.941406 L 1.003906 0 L 3.066406 0 C 3.441406 0 3.601562 0 3.953125 -0.0390625 C 5.5625 -0.242188 6.75 -1.507812 6.75 -3.550781 C 6.75 -5.621094 5.613281 -6.699219 4.003906 -6.898438 Z M 3.863281 -0.753906 C 3.640625 -0.714844 3.378906 -0.703125 3.015625 -0.703125 L 1.871094 -0.703125 L 1.871094 -6.234375 L 3.066406 -6.234375 C 3.429688 -6.234375 3.691406 -6.226562 3.914062 -6.183594 C 5.089844 -5.996094 5.804688 -5.089844 5.804688 -3.550781 C 5.804688 -1.910156 5.039062 -0.945312 3.863281 -0.753906 Z M 3.863281 -0.753906 "/></g></g></g><g fill="rgb(100%, 100%, 100%)" fill-opacity="1"><g transform="translate(212.889016, 224.3406)"><g><path d="M 3.75 -7.082031 C 1.640625 -7.082031 0.472656 -5.59375 0.472656 -3.46875 C 0.472656 -1.359375 1.640625 0.140625 3.75 0.140625 C 5.863281 0.140625 7.03125 -1.359375 7.03125 -3.46875 C 7.03125 -5.59375 5.863281 -7.082031 3.75 -7.082031 Z M 3.75 -0.542969 C 2.292969 -0.542969 1.4375 -1.667969 1.4375 -3.46875 C 1.4375 -5.28125 2.292969 -6.398438 3.75 -6.398438 C 5.210938 -6.398438 6.066406 -5.28125 6.066406 -3.46875 C 6.066406 -1.667969 5.210938 -0.542969 3.75 -0.542969 Z M 3.75 -0.542969 "/></g></g></g><g fill="rgb(100%, 100%, 100%)" fill-opacity="1"><g transform="translate(226.306663, 224.3406)"><g><path d="M 5.570312 -1.820312 C 5.511719 -2.515625 5.238281 -3.148438 4.675781 -3.410156 C 5.320312 -3.609375 5.914062 -4.132812 5.914062 -5.050781 C 5.914062 -6.214844 5.191406 -6.769531 4.183594 -6.898438 C 3.871094 -6.941406 3.628906 -6.941406 3.277344 -6.941406 L 1.003906 -6.941406 L 1.003906 0 L 1.871094 0 L 1.871094 -2.988281 L 3.179688 -2.988281 C 3.339844 -2.988281 3.511719 -2.988281 3.671875 -2.976562 C 4.355469 -2.925781 4.625 -2.453125 4.707031 -1.738281 C 4.796875 -0.886719 4.886719 -0.441406 5.078125 0 L 6.035156 0 C 5.753906 -0.371094 5.652344 -0.914062 5.570312 -1.820312 Z M 1.871094 -3.691406 L 1.871094 -6.234375 L 3.277344 -6.234375 C 3.589844 -6.234375 3.78125 -6.226562 3.972656 -6.195312 C 4.617188 -6.09375 4.988281 -5.742188 4.988281 -4.96875 C 4.988281 -4.183594 4.515625 -3.773438 3.871094 -3.710938 C 3.679688 -3.691406 3.511719 -3.691406 3.199219 -3.691406 Z M 1.871094 -3.691406 "/></g></g></g><g fill="rgb(100%, 100%, 100%)" fill-opacity="1"><g transform="translate(238.537856, 224.3406)"><g><path d="M 4.585938 -2.453125 L 5.410156 0 L 6.347656 0 L 3.953125 -6.941406 L 2.785156 -6.941406 L 0.292969 0 L 1.21875 0 L 2.03125 -2.453125 Z M 2.273438 -3.15625 L 3.347656 -6.253906 L 4.355469 -3.15625 Z M 2.273438 -3.15625 "/></g></g></g></svg>